<mxfile host="app.diagrams.net" agent="Mozilla/5.0 (Windows NT 10.0; Win64; x64) AppleWebKit/537.36 (KHTML, like Gecko) Chrome/130.0.0.0 Safari/537.36 Edg/130.0.0.0" version="24.8.3">
  <diagram name="PÃ¡gina-1" id="bJ0KBdlIUZLLZwcX1AwN">
    <mxGraphModel dx="3207" dy="2299" grid="1" gridSize="10" guides="1" tooltips="1" connect="1" arrows="1" fold="1" page="1" pageScale="1" pageWidth="827" pageHeight="1169" math="0" shadow="0">
      <root>
        <mxCell id="0" />
        <mxCell id="1" parent="0" />
        <mxCell id="lddae44WPFYO3zYL8UWN-17" style="edgeStyle=orthogonalEdgeStyle;rounded=0;orthogonalLoop=1;jettySize=auto;html=1;entryX=0.5;entryY=0;entryDx=0;entryDy=0;" parent="1" source="lddae44WPFYO3zYL8UWN-1" target="lddae44WPFYO3zYL8UWN-15" edge="1">
          <mxGeometry relative="1" as="geometry" />
        </mxCell>
        <mxCell id="lddae44WPFYO3zYL8UWN-1" value="Sucursal" style="html=1;whiteSpace=wrap;" parent="1" vertex="1">
          <mxGeometry x="-587" y="-978" width="110" height="50" as="geometry" />
        </mxCell>
        <mxCell id="lddae44WPFYO3zYL8UWN-9" style="edgeStyle=orthogonalEdgeStyle;rounded=0;orthogonalLoop=1;jettySize=auto;html=1;entryX=1;entryY=0.5;entryDx=0;entryDy=0;" parent="1" source="lddae44WPFYO3zYL8UWN-2" target="lddae44WPFYO3zYL8UWN-8" edge="1">
          <mxGeometry relative="1" as="geometry" />
        </mxCell>
        <mxCell id="lddae44WPFYO3zYL8UWN-38" style="edgeStyle=orthogonalEdgeStyle;rounded=0;orthogonalLoop=1;jettySize=auto;html=1;exitX=0.5;exitY=1;exitDx=0;exitDy=0;entryX=0.5;entryY=0;entryDx=0;entryDy=0;" parent="1" source="lddae44WPFYO3zYL8UWN-2" target="lddae44WPFYO3zYL8UWN-37" edge="1">
          <mxGeometry relative="1" as="geometry" />
        </mxCell>
        <mxCell id="lddae44WPFYO3zYL8UWN-2" value="Empleado" style="html=1;whiteSpace=wrap;" parent="1" vertex="1">
          <mxGeometry x="-257" y="-978" width="110" height="50" as="geometry" />
        </mxCell>
        <mxCell id="lddae44WPFYO3zYL8UWN-44" style="edgeStyle=orthogonalEdgeStyle;rounded=0;orthogonalLoop=1;jettySize=auto;html=1;entryX=0;entryY=0.5;entryDx=0;entryDy=0;" parent="1" source="lddae44WPFYO3zYL8UWN-3" target="lddae44WPFYO3zYL8UWN-43" edge="1">
          <mxGeometry relative="1" as="geometry" />
        </mxCell>
        <mxCell id="lddae44WPFYO3zYL8UWN-3" value="Venta" style="html=1;whiteSpace=wrap;" parent="1" vertex="1">
          <mxGeometry x="-257" y="-798" width="110" height="50" as="geometry" />
        </mxCell>
        <mxCell id="lddae44WPFYO3zYL8UWN-31" style="edgeStyle=orthogonalEdgeStyle;rounded=0;orthogonalLoop=1;jettySize=auto;html=1;entryX=1;entryY=0.5;entryDx=0;entryDy=0;" parent="1" source="lddae44WPFYO3zYL8UWN-4" target="lddae44WPFYO3zYL8UWN-30" edge="1">
          <mxGeometry relative="1" as="geometry" />
        </mxCell>
        <mxCell id="lddae44WPFYO3zYL8UWN-50" style="edgeStyle=orthogonalEdgeStyle;rounded=0;orthogonalLoop=1;jettySize=auto;html=1;entryX=0;entryY=0.5;entryDx=0;entryDy=0;" parent="1" source="lddae44WPFYO3zYL8UWN-4" target="lddae44WPFYO3zYL8UWN-49" edge="1">
          <mxGeometry relative="1" as="geometry" />
        </mxCell>
        <mxCell id="lddae44WPFYO3zYL8UWN-4" value="Productos" style="html=1;whiteSpace=wrap;" parent="1" vertex="1">
          <mxGeometry x="-587" y="-628" width="110" height="50" as="geometry" />
        </mxCell>
        <mxCell id="lddae44WPFYO3zYL8UWN-5" value="Categoria de produccto" style="html=1;whiteSpace=wrap;" parent="1" vertex="1">
          <mxGeometry x="-827" y="-628" width="110" height="50" as="geometry" />
        </mxCell>
        <mxCell id="lddae44WPFYO3zYL8UWN-72" style="edgeStyle=orthogonalEdgeStyle;rounded=0;orthogonalLoop=1;jettySize=auto;html=1;entryX=0.5;entryY=0;entryDx=0;entryDy=0;" parent="1" source="lddae44WPFYO3zYL8UWN-6" target="lddae44WPFYO3zYL8UWN-71" edge="1">
          <mxGeometry relative="1" as="geometry" />
        </mxCell>
        <mxCell id="lddae44WPFYO3zYL8UWN-6" value="Factura" style="html=1;whiteSpace=wrap;" parent="1" vertex="1">
          <mxGeometry x="3" y="-798" width="110" height="50" as="geometry" />
        </mxCell>
        <mxCell id="lddae44WPFYO3zYL8UWN-10" style="edgeStyle=orthogonalEdgeStyle;rounded=0;orthogonalLoop=1;jettySize=auto;html=1;entryX=1;entryY=0.5;entryDx=0;entryDy=0;" parent="1" source="lddae44WPFYO3zYL8UWN-8" target="lddae44WPFYO3zYL8UWN-1" edge="1">
          <mxGeometry relative="1" as="geometry" />
        </mxCell>
        <mxCell id="lddae44WPFYO3zYL8UWN-8" value="" style="rhombus;" parent="1" vertex="1">
          <mxGeometry x="-387" y="-968" width="30" height="30" as="geometry" />
        </mxCell>
        <mxCell id="lddae44WPFYO3zYL8UWN-11" value="Trabaja en" style="text;html=1;align=center;verticalAlign=middle;resizable=0;points=[];autosize=1;strokeColor=none;fillColor=none;" parent="1" vertex="1">
          <mxGeometry x="-417" y="-1010" width="80" height="30" as="geometry" />
        </mxCell>
        <mxCell id="lddae44WPFYO3zYL8UWN-12" value="1" style="text;html=1;align=center;verticalAlign=middle;resizable=0;points=[];autosize=1;strokeColor=none;fillColor=none;" parent="1" vertex="1">
          <mxGeometry x="-477" y="-988" width="30" height="30" as="geometry" />
        </mxCell>
        <mxCell id="lddae44WPFYO3zYL8UWN-13" value="N" style="text;html=1;align=center;verticalAlign=middle;resizable=0;points=[];autosize=1;strokeColor=none;fillColor=none;" parent="1" vertex="1">
          <mxGeometry x="-287" y="-988" width="30" height="30" as="geometry" />
        </mxCell>
        <mxCell id="lddae44WPFYO3zYL8UWN-24" style="edgeStyle=orthogonalEdgeStyle;rounded=0;orthogonalLoop=1;jettySize=auto;html=1;entryX=0.5;entryY=0;entryDx=0;entryDy=0;" parent="1" source="lddae44WPFYO3zYL8UWN-14" target="lddae44WPFYO3zYL8UWN-23" edge="1">
          <mxGeometry relative="1" as="geometry" />
        </mxCell>
        <mxCell id="lddae44WPFYO3zYL8UWN-14" value="Catalogo" style="html=1;whiteSpace=wrap;" parent="1" vertex="1">
          <mxGeometry x="-587" y="-800" width="110" height="50" as="geometry" />
        </mxCell>
        <mxCell id="lddae44WPFYO3zYL8UWN-19" style="edgeStyle=orthogonalEdgeStyle;rounded=0;orthogonalLoop=1;jettySize=auto;html=1;" parent="1" source="lddae44WPFYO3zYL8UWN-15" target="lddae44WPFYO3zYL8UWN-14" edge="1">
          <mxGeometry relative="1" as="geometry" />
        </mxCell>
        <mxCell id="lddae44WPFYO3zYL8UWN-15" value="" style="rhombus;" parent="1" vertex="1">
          <mxGeometry x="-547" y="-878" width="30" height="30" as="geometry" />
        </mxCell>
        <mxCell id="lddae44WPFYO3zYL8UWN-20" value="Tiene" style="text;html=1;align=center;verticalAlign=middle;resizable=0;points=[];autosize=1;strokeColor=none;fillColor=none;" parent="1" vertex="1">
          <mxGeometry x="-642" y="-880" width="50" height="30" as="geometry" />
        </mxCell>
        <mxCell id="lddae44WPFYO3zYL8UWN-21" value="1" style="text;html=1;align=center;verticalAlign=middle;resizable=0;points=[];autosize=1;strokeColor=none;fillColor=none;" parent="1" vertex="1">
          <mxGeometry x="-522" y="-820" width="30" height="30" as="geometry" />
        </mxCell>
        <mxCell id="lddae44WPFYO3zYL8UWN-22" value="1" style="text;html=1;align=center;verticalAlign=middle;resizable=0;points=[];autosize=1;strokeColor=none;fillColor=none;" parent="1" vertex="1">
          <mxGeometry x="-512" y="-930" width="30" height="30" as="geometry" />
        </mxCell>
        <mxCell id="lddae44WPFYO3zYL8UWN-26" style="edgeStyle=orthogonalEdgeStyle;rounded=0;orthogonalLoop=1;jettySize=auto;html=1;entryX=0.5;entryY=0;entryDx=0;entryDy=0;" parent="1" source="lddae44WPFYO3zYL8UWN-23" target="lddae44WPFYO3zYL8UWN-4" edge="1">
          <mxGeometry relative="1" as="geometry" />
        </mxCell>
        <mxCell id="lddae44WPFYO3zYL8UWN-23" value="" style="rhombus;" parent="1" vertex="1">
          <mxGeometry x="-547" y="-708" width="30" height="30" as="geometry" />
        </mxCell>
        <mxCell id="lddae44WPFYO3zYL8UWN-27" value="Contiene" style="text;html=1;align=center;verticalAlign=middle;resizable=0;points=[];autosize=1;strokeColor=none;fillColor=none;" parent="1" vertex="1">
          <mxGeometry x="-652" y="-708" width="70" height="30" as="geometry" />
        </mxCell>
        <mxCell id="lddae44WPFYO3zYL8UWN-28" value="N" style="text;html=1;align=center;verticalAlign=middle;resizable=0;points=[];autosize=1;strokeColor=none;fillColor=none;" parent="1" vertex="1">
          <mxGeometry x="-512" y="-660" width="30" height="30" as="geometry" />
        </mxCell>
        <mxCell id="lddae44WPFYO3zYL8UWN-29" value="1..N" style="text;html=1;align=center;verticalAlign=middle;resizable=0;points=[];autosize=1;strokeColor=none;fillColor=none;" parent="1" vertex="1">
          <mxGeometry x="-532" y="-740" width="50" height="30" as="geometry" />
        </mxCell>
        <mxCell id="lddae44WPFYO3zYL8UWN-32" style="edgeStyle=orthogonalEdgeStyle;rounded=0;orthogonalLoop=1;jettySize=auto;html=1;entryX=1;entryY=0.5;entryDx=0;entryDy=0;" parent="1" source="lddae44WPFYO3zYL8UWN-30" target="lddae44WPFYO3zYL8UWN-5" edge="1">
          <mxGeometry relative="1" as="geometry" />
        </mxCell>
        <mxCell id="lddae44WPFYO3zYL8UWN-30" value="" style="rhombus;" parent="1" vertex="1">
          <mxGeometry x="-672" y="-618" width="30" height="30" as="geometry" />
        </mxCell>
        <mxCell id="lddae44WPFYO3zYL8UWN-33" value="Pertenece" style="text;html=1;align=center;verticalAlign=middle;resizable=0;points=[];autosize=1;strokeColor=none;fillColor=none;" parent="1" vertex="1">
          <mxGeometry x="-697" y="-560" width="80" height="30" as="geometry" />
        </mxCell>
        <mxCell id="lddae44WPFYO3zYL8UWN-34" value="1" style="text;html=1;align=center;verticalAlign=middle;resizable=0;points=[];autosize=1;strokeColor=none;fillColor=none;" parent="1" vertex="1">
          <mxGeometry x="-722" y="-600" width="30" height="30" as="geometry" />
        </mxCell>
        <mxCell id="lddae44WPFYO3zYL8UWN-36" value="1..N" style="text;html=1;align=center;verticalAlign=middle;resizable=0;points=[];autosize=1;strokeColor=none;fillColor=none;" parent="1" vertex="1">
          <mxGeometry x="-632" y="-630" width="50" height="30" as="geometry" />
        </mxCell>
        <mxCell id="lddae44WPFYO3zYL8UWN-39" style="edgeStyle=orthogonalEdgeStyle;rounded=0;orthogonalLoop=1;jettySize=auto;html=1;exitX=0.5;exitY=1;exitDx=0;exitDy=0;entryX=0.5;entryY=0;entryDx=0;entryDy=0;" parent="1" source="lddae44WPFYO3zYL8UWN-37" target="lddae44WPFYO3zYL8UWN-3" edge="1">
          <mxGeometry relative="1" as="geometry" />
        </mxCell>
        <mxCell id="lddae44WPFYO3zYL8UWN-37" value="" style="rhombus;" parent="1" vertex="1">
          <mxGeometry x="-217" y="-878" width="30" height="30" as="geometry" />
        </mxCell>
        <mxCell id="lddae44WPFYO3zYL8UWN-40" value="Realiza" style="text;html=1;align=center;verticalAlign=middle;resizable=0;points=[];autosize=1;strokeColor=none;fillColor=none;" parent="1" vertex="1">
          <mxGeometry x="-167" y="-878" width="60" height="30" as="geometry" />
        </mxCell>
        <mxCell id="lddae44WPFYO3zYL8UWN-41" value="1..N" style="text;html=1;align=center;verticalAlign=middle;resizable=0;points=[];autosize=1;strokeColor=none;fillColor=none;" parent="1" vertex="1">
          <mxGeometry x="-272" y="-830" width="50" height="30" as="geometry" />
        </mxCell>
        <mxCell id="lddae44WPFYO3zYL8UWN-42" value="1" style="text;html=1;align=center;verticalAlign=middle;resizable=0;points=[];autosize=1;strokeColor=none;fillColor=none;" parent="1" vertex="1">
          <mxGeometry x="-252" y="-930" width="30" height="30" as="geometry" />
        </mxCell>
        <mxCell id="lddae44WPFYO3zYL8UWN-45" style="edgeStyle=orthogonalEdgeStyle;rounded=0;orthogonalLoop=1;jettySize=auto;html=1;exitX=1;exitY=0.5;exitDx=0;exitDy=0;entryX=0;entryY=0.5;entryDx=0;entryDy=0;" parent="1" source="lddae44WPFYO3zYL8UWN-43" target="lddae44WPFYO3zYL8UWN-6" edge="1">
          <mxGeometry relative="1" as="geometry" />
        </mxCell>
        <mxCell id="lddae44WPFYO3zYL8UWN-43" value="" style="rhombus;" parent="1" vertex="1">
          <mxGeometry x="-87" y="-788" width="30" height="30" as="geometry" />
        </mxCell>
        <mxCell id="lddae44WPFYO3zYL8UWN-46" value="Genera" style="text;html=1;align=center;verticalAlign=middle;resizable=0;points=[];autosize=1;strokeColor=none;fillColor=none;" parent="1" vertex="1">
          <mxGeometry x="-107" y="-750" width="60" height="30" as="geometry" />
        </mxCell>
        <mxCell id="lddae44WPFYO3zYL8UWN-47" value="1" style="text;html=1;align=center;verticalAlign=middle;resizable=0;points=[];autosize=1;strokeColor=none;fillColor=none;" parent="1" vertex="1">
          <mxGeometry x="-32" y="-810" width="30" height="30" as="geometry" />
        </mxCell>
        <mxCell id="lddae44WPFYO3zYL8UWN-48" value="1" style="text;html=1;align=center;verticalAlign=middle;resizable=0;points=[];autosize=1;strokeColor=none;fillColor=none;" parent="1" vertex="1">
          <mxGeometry x="-152" y="-810" width="30" height="30" as="geometry" />
        </mxCell>
        <mxCell id="lddae44WPFYO3zYL8UWN-51" style="edgeStyle=orthogonalEdgeStyle;rounded=0;orthogonalLoop=1;jettySize=auto;html=1;entryX=0.5;entryY=1;entryDx=0;entryDy=0;" parent="1" source="lddae44WPFYO3zYL8UWN-49" target="lddae44WPFYO3zYL8UWN-3" edge="1">
          <mxGeometry relative="1" as="geometry" />
        </mxCell>
        <mxCell id="lddae44WPFYO3zYL8UWN-49" value="" style="rhombus;" parent="1" vertex="1">
          <mxGeometry x="-217" y="-618" width="30" height="30" as="geometry" />
        </mxCell>
        <mxCell id="lddae44WPFYO3zYL8UWN-52" value="Participan" style="text;html=1;align=center;verticalAlign=middle;resizable=0;points=[];autosize=1;strokeColor=none;fillColor=none;" parent="1" vertex="1">
          <mxGeometry x="-207" y="-590" width="80" height="30" as="geometry" />
        </mxCell>
        <mxCell id="lddae44WPFYO3zYL8UWN-53" value="1..N" style="text;html=1;align=center;verticalAlign=middle;resizable=0;points=[];autosize=1;strokeColor=none;fillColor=none;" parent="1" vertex="1">
          <mxGeometry x="-272" y="-740" width="50" height="30" as="geometry" />
        </mxCell>
        <mxCell id="lddae44WPFYO3zYL8UWN-54" value="1..N" style="text;html=1;align=center;verticalAlign=middle;resizable=0;points=[];autosize=1;strokeColor=none;fillColor=none;" parent="1" vertex="1">
          <mxGeometry x="-477" y="-600" width="50" height="30" as="geometry" />
        </mxCell>
        <mxCell id="lddae44WPFYO3zYL8UWN-79" style="edgeStyle=orthogonalEdgeStyle;rounded=0;orthogonalLoop=1;jettySize=auto;html=1;entryX=0;entryY=0.5;entryDx=0;entryDy=0;" parent="1" source="lddae44WPFYO3zYL8UWN-55" target="lddae44WPFYO3zYL8UWN-78" edge="1">
          <mxGeometry relative="1" as="geometry" />
        </mxCell>
        <mxCell id="lddae44WPFYO3zYL8UWN-55" value="Cliente" style="html=1;whiteSpace=wrap;" parent="1" vertex="1">
          <mxGeometry x="3" y="-988" width="110" height="50" as="geometry" />
        </mxCell>
        <mxCell id="lddae44WPFYO3zYL8UWN-62" value="Categoria de Factura" style="html=1;whiteSpace=wrap;" parent="1" vertex="1">
          <mxGeometry x="3" y="-638" width="110" height="50" as="geometry" />
        </mxCell>
        <mxCell id="lddae44WPFYO3zYL8UWN-66" style="edgeStyle=orthogonalEdgeStyle;rounded=0;orthogonalLoop=1;jettySize=auto;html=1;entryX=0.5;entryY=0;entryDx=0;entryDy=0;" parent="1" source="lddae44WPFYO3zYL8UWN-64" target="lddae44WPFYO3zYL8UWN-65" edge="1">
          <mxGeometry relative="1" as="geometry" />
        </mxCell>
        <mxCell id="lddae44WPFYO3zYL8UWN-64" value="Categoria de cliente" style="html=1;whiteSpace=wrap;" parent="1" vertex="1">
          <mxGeometry x="3" y="-1169" width="110" height="50" as="geometry" />
        </mxCell>
        <mxCell id="lddae44WPFYO3zYL8UWN-67" style="edgeStyle=orthogonalEdgeStyle;rounded=0;orthogonalLoop=1;jettySize=auto;html=1;" parent="1" source="lddae44WPFYO3zYL8UWN-65" target="lddae44WPFYO3zYL8UWN-55" edge="1">
          <mxGeometry relative="1" as="geometry" />
        </mxCell>
        <mxCell id="lddae44WPFYO3zYL8UWN-65" value="" style="rhombus;" parent="1" vertex="1">
          <mxGeometry x="43" y="-1069" width="30" height="30" as="geometry" />
        </mxCell>
        <mxCell id="lddae44WPFYO3zYL8UWN-68" value="N" style="text;html=1;align=center;verticalAlign=middle;resizable=0;points=[];autosize=1;strokeColor=none;fillColor=none;" parent="1" vertex="1">
          <mxGeometry x="68" y="-1010" width="30" height="30" as="geometry" />
        </mxCell>
        <mxCell id="lddae44WPFYO3zYL8UWN-69" value="1" style="text;html=1;align=center;verticalAlign=middle;resizable=0;points=[];autosize=1;strokeColor=none;fillColor=none;" parent="1" vertex="1">
          <mxGeometry x="68" y="-1109" width="30" height="30" as="geometry" />
        </mxCell>
        <mxCell id="lddae44WPFYO3zYL8UWN-70" value="Pertenece" style="text;html=1;align=center;verticalAlign=middle;resizable=0;points=[];autosize=1;strokeColor=none;fillColor=none;" parent="1" vertex="1">
          <mxGeometry x="-47" y="-1071" width="80" height="30" as="geometry" />
        </mxCell>
        <mxCell id="lddae44WPFYO3zYL8UWN-73" style="edgeStyle=orthogonalEdgeStyle;rounded=0;orthogonalLoop=1;jettySize=auto;html=1;" parent="1" source="lddae44WPFYO3zYL8UWN-71" target="lddae44WPFYO3zYL8UWN-62" edge="1">
          <mxGeometry relative="1" as="geometry" />
        </mxCell>
        <mxCell id="lddae44WPFYO3zYL8UWN-71" value="" style="rhombus;" parent="1" vertex="1">
          <mxGeometry x="43" y="-708" width="30" height="30" as="geometry" />
        </mxCell>
        <mxCell id="lddae44WPFYO3zYL8UWN-74" value="Pertence" style="text;html=1;align=center;verticalAlign=middle;resizable=0;points=[];autosize=1;strokeColor=none;fillColor=none;" parent="1" vertex="1">
          <mxGeometry x="83" y="-708" width="70" height="30" as="geometry" />
        </mxCell>
        <mxCell id="lddae44WPFYO3zYL8UWN-75" value="N" style="text;html=1;align=center;verticalAlign=middle;resizable=0;points=[];autosize=1;strokeColor=none;fillColor=none;" parent="1" vertex="1">
          <mxGeometry x="18" y="-750" width="30" height="30" as="geometry" />
        </mxCell>
        <mxCell id="lddae44WPFYO3zYL8UWN-76" value="1" style="text;html=1;align=center;verticalAlign=middle;resizable=0;points=[];autosize=1;strokeColor=none;fillColor=none;" parent="1" vertex="1">
          <mxGeometry x="18" y="-670" width="30" height="30" as="geometry" />
        </mxCell>
        <mxCell id="lddae44WPFYO3zYL8UWN-85" style="edgeStyle=orthogonalEdgeStyle;rounded=0;orthogonalLoop=1;jettySize=auto;html=1;entryX=0.5;entryY=0;entryDx=0;entryDy=0;" parent="1" source="lddae44WPFYO3zYL8UWN-77" target="lddae44WPFYO3zYL8UWN-84" edge="1">
          <mxGeometry relative="1" as="geometry" />
        </mxCell>
        <mxCell id="lddae44WPFYO3zYL8UWN-92" style="edgeStyle=orthogonalEdgeStyle;rounded=0;orthogonalLoop=1;jettySize=auto;html=1;entryX=0;entryY=0.5;entryDx=0;entryDy=0;" parent="1" source="lddae44WPFYO3zYL8UWN-77" target="lddae44WPFYO3zYL8UWN-90" edge="1">
          <mxGeometry relative="1" as="geometry" />
        </mxCell>
        <mxCell id="lddae44WPFYO3zYL8UWN-77" value="Pago" style="html=1;whiteSpace=wrap;" parent="1" vertex="1">
          <mxGeometry x="183" y="-890" width="110" height="50" as="geometry" />
        </mxCell>
        <mxCell id="lddae44WPFYO3zYL8UWN-80" style="edgeStyle=orthogonalEdgeStyle;rounded=0;orthogonalLoop=1;jettySize=auto;html=1;entryX=0.5;entryY=0;entryDx=0;entryDy=0;" parent="1" source="lddae44WPFYO3zYL8UWN-78" target="lddae44WPFYO3zYL8UWN-77" edge="1">
          <mxGeometry relative="1" as="geometry" />
        </mxCell>
        <mxCell id="lddae44WPFYO3zYL8UWN-78" value="" style="rhombus;" parent="1" vertex="1">
          <mxGeometry x="223" y="-978" width="30" height="30" as="geometry" />
        </mxCell>
        <mxCell id="lddae44WPFYO3zYL8UWN-81" value="Realiza" style="text;html=1;align=center;verticalAlign=middle;resizable=0;points=[];autosize=1;strokeColor=none;fillColor=none;" parent="1" vertex="1">
          <mxGeometry x="213" y="-1020" width="60" height="30" as="geometry" />
        </mxCell>
        <mxCell id="lddae44WPFYO3zYL8UWN-82" value="1...N" style="text;html=1;align=center;verticalAlign=middle;resizable=0;points=[];autosize=1;strokeColor=none;fillColor=none;" parent="1" vertex="1">
          <mxGeometry x="238" y="-920" width="50" height="30" as="geometry" />
        </mxCell>
        <mxCell id="lddae44WPFYO3zYL8UWN-83" value="1" style="text;html=1;align=center;verticalAlign=middle;resizable=0;points=[];autosize=1;strokeColor=none;fillColor=none;" parent="1" vertex="1">
          <mxGeometry x="118" y="-950" width="30" height="30" as="geometry" />
        </mxCell>
        <mxCell id="lddae44WPFYO3zYL8UWN-86" style="edgeStyle=orthogonalEdgeStyle;rounded=0;orthogonalLoop=1;jettySize=auto;html=1;entryX=1;entryY=0.5;entryDx=0;entryDy=0;" parent="1" source="lddae44WPFYO3zYL8UWN-84" target="lddae44WPFYO3zYL8UWN-6" edge="1">
          <mxGeometry relative="1" as="geometry" />
        </mxCell>
        <mxCell id="lddae44WPFYO3zYL8UWN-84" value="" style="rhombus;" parent="1" vertex="1">
          <mxGeometry x="223" y="-788" width="30" height="30" as="geometry" />
        </mxCell>
        <mxCell id="lddae44WPFYO3zYL8UWN-87" value="1" style="text;html=1;align=center;verticalAlign=middle;resizable=0;points=[];autosize=1;strokeColor=none;fillColor=none;" parent="1" vertex="1">
          <mxGeometry x="243" y="-840" width="30" height="30" as="geometry" />
        </mxCell>
        <mxCell id="lddae44WPFYO3zYL8UWN-88" value="1" style="text;html=1;align=center;verticalAlign=middle;resizable=0;points=[];autosize=1;strokeColor=none;fillColor=none;" parent="1" vertex="1">
          <mxGeometry x="108" y="-770" width="30" height="30" as="geometry" />
        </mxCell>
        <mxCell id="lddae44WPFYO3zYL8UWN-89" value="Metodo de pago" style="html=1;whiteSpace=wrap;" parent="1" vertex="1">
          <mxGeometry x="444.03" y="-890" width="110" height="50" as="geometry" />
        </mxCell>
        <mxCell id="JR-rLjdF9bkosrSO1UTa-4" style="edgeStyle=orthogonalEdgeStyle;rounded=0;orthogonalLoop=1;jettySize=auto;html=1;exitX=1;exitY=0.5;exitDx=0;exitDy=0;entryX=0;entryY=0.5;entryDx=0;entryDy=0;" edge="1" parent="1" source="lddae44WPFYO3zYL8UWN-90" target="lddae44WPFYO3zYL8UWN-89">
          <mxGeometry relative="1" as="geometry" />
        </mxCell>
        <mxCell id="lddae44WPFYO3zYL8UWN-90" value="" style="rhombus;" parent="1" vertex="1">
          <mxGeometry x="355" y="-880" width="30" height="30" as="geometry" />
        </mxCell>
        <mxCell id="lddae44WPFYO3zYL8UWN-94" value="Mediante" style="text;html=1;align=center;verticalAlign=middle;resizable=0;points=[];autosize=1;strokeColor=none;fillColor=none;" parent="1" vertex="1">
          <mxGeometry x="330" y="-930" width="70" height="30" as="geometry" />
        </mxCell>
        <mxCell id="lddae44WPFYO3zYL8UWN-95" value="N" style="text;html=1;align=center;verticalAlign=middle;resizable=0;points=[];autosize=1;strokeColor=none;fillColor=none;" parent="1" vertex="1">
          <mxGeometry x="414.03" y="-860" width="30" height="30" as="geometry" />
        </mxCell>
        <mxCell id="lddae44WPFYO3zYL8UWN-96" value="N" style="text;html=1;align=center;verticalAlign=middle;resizable=0;points=[];autosize=1;strokeColor=none;fillColor=none;" parent="1" vertex="1">
          <mxGeometry x="293" y="-860" width="30" height="30" as="geometry" />
        </mxCell>
        <mxCell id="lddae44WPFYO3zYL8UWN-97" value="Corresponde" style="text;html=1;align=center;verticalAlign=middle;resizable=0;points=[];autosize=1;strokeColor=none;fillColor=none;" parent="1" vertex="1">
          <mxGeometry x="263" y="-790" width="90" height="30" as="geometry" />
        </mxCell>
      </root>
    </mxGraphModel>
  </diagram>
</mxfile>
